# xmcd CD database file
# Generated: mer jan 7 22:24:09 2004 by KSCD
# 
# Track frame offsets:
#       150
#       6210
#       15895
#       32765
#       45365
#       48730
#       56977
#       72565
#       85640
#       92447
#       105240
#       131900
#       149237
#       161745
#       173812
#       178737
#       194570
#       217655
#
# Disc length: 2912 seconds
#
# Revision: 2
# Processed by: cddbd v1.4PL0 Copyright (c) Steve Scherf et al.
# Submitted via: Kscd 1.3.3
#
DISCID=f80b5e12
DTITLE=Nitty Gritty Dirt Ban - Symphonion Dream
DYEAR=1900
DGENRE=
TTITLE0=Winterwhite - H.Bee
TTITLE1=Raleigh-Durham Reel - Jeff Hanna, McEuen, Fadden, Ibby 
TTITLE2=Battle of New Orleans - Jimmy Driftwood
TTITLE3=Bayou Jubilee - Jeff Hanna 
TTITLE4=Hanna Sally was a Goodun - McEuen, Jimmie Fadden, Jimmy Ibbotson
TTITLE5=Hey Good Lookin - Hank Williams 
TTITLE6=Classical Banjo I - McEuen
TTITLE7=Daddy was a Sailor - Jimmie Fadden 
TTITLE8=Sleeping on the Beach - Jimmie Fadden
TTITLE9=Santa Monica Pier - W. McEuen
TTITLE10=Rippling Waters - Jimmy Ibbotson
TTITLE11=All I Have To Do Is Dream - D. Bryant
TTITLE12=Mother of Love - Ken Edwards
TTITLE13=The Moon Just Turned Blue - J D Souther
TTITLE14=Gotta Travel On - P Clayton, L Ehrlich, D Lazar
TTITLE15=Joshua Come Home - Jimmy Ibbotson
TTITLE16=Solstice - H Bee
TTITLE17=data
EXTD=
EXTT0=
EXTT1=
EXTT2=
EXTT3=
EXTT4=
EXTT5=
EXTT6=
EXTT7=
EXTT8=
EXTT9=
EXTT10=
EXTT11=
EXTT12=
EXTT13=
EXTT14=
EXTT15=
EXTT16=
EXTT17=
PLAYORDER=
